# xmcd
#
# Track frame offsets: 
#        150
#        13946
#        27108
#        38325
#        55681
#        65524
#        74629
#        90574
#        104861
#        116375
#        131517
#        148771
#        161650
#        173902
#        186168
#        198759
#        210676
#        225016
#        234654
#        245704
#
# Disc length: 3454 seconds
#
# Revision: 0
# Processed by: cddbd v1.5.2PL0 Copyright (c) Steve Scherf et al.
# Submitted via: ExactAudioCopyFreeDBPlugin 1.0
#
DISCID=160d7c14
DTITLE=Big Tom - The Ultimate Collection Vol 1 CD2
DYEAR=2014
DGENRE=
TTITLE0=Where The Grass Grows The Greenest
TTITLE1=Back To Castleblayney
TTITLE2=Run To TheDoor
TTITLE3=Southern Dixie Flyer
TTITLE4=If Teardrops Were Pennies
TTITLE5=Pain Of Loving You
TTITLE6=5000 Miles From Sligo
TTITLE7=Nothing I Can Do About It Now
TTITLE8=She Thinks I Still Care
TTITLE9=Tubbercurry
TTITLE10=Jasons Farm
TTITLE11=Cottage On The Borderline
TTITLE12=Carroll County Accident
TTITLE13=Old Log Cabin
TTITLE14=Travel On
TTITLE15=Tears On Her Bridal Bouquet
TTITLE16=Teach Your Children
TTITLE17=Broken Marriage Vows
TTITLE18=Nobody's Darling
TTITLE19=Forgiving You Was Easy
EXTD=
EXTT0=
EXTT1=
EXTT2=
EXTT3=
EXTT4=
EXTT5=
EXTT6=
EXTT7=
EXTT8=
EXTT9=
EXTT10=
EXTT11=
EXTT12=
EXTT13=
EXTT14=
EXTT15=
EXTT16=
EXTT17=
EXTT18=
EXTT19=
PLAYORDER=
